<svg xmlns="http://www.w3.org/2000/svg" viewBox="0 0 2215.56327 2215.64593">
  <g id="Layer_2" data-name="Layer 2">
    <g id="Capa_1" data-name="Capa 1">
      <path class="cls-1" d="M1107.83683,0c611.74508,0,1107.72644,495.98136,1107.72644,1107.83683,0,611.82577-495.98136,1107.8091-1107.72644,1107.8091C496.01106,2215.64593,0,1719.6626,0,1107.83683.0292,495.98136,495.98532,0,1107.83683,0ZM920.3601,455.00844c-5.05727,19.09654.82068,98.84859-17.54328,110.73221-28.16714,27.95281-21.76649,67.35366-32.17652,94.08683-48.40265,122.2515-95.34559,154.778-202.33422,191.80686-132.57937,45.91089-376.70817,167.06353-393.43423,318.70331-.41529,8.16528,17.34231,5.26862,18.97725,4.77166,72.56338-23.95334,115.46773-120.329,319.03445.81771,118.6599,57.47375,163.96492,94.49273,249.48158,163.72535,157.37963,127.64289,188.20337,90.08735,210.19755,199.96224,25.59124,127.75376,22.49313,383.43949,47.14736,383.43949,24.77056-.02574,22.49016-266.217,35.59243-383.84538,12.37859-112.66066,146.00635-144.45853,212.22154-210.7846,102.161-80.90042,157.76572-120.41412,210.61235-153.01782,187.27279-115.77314,189.43637-26.20849,351.81783,1.04739,2.07647.29105,12.69688,2.97783,10.73772-7.95541-24.01818-153.43361-255.366-258.3725-390.9494-312.62687-104.80228-41.9114-142.26327-52.118-195.1099-196.78047-9.89426-26.93513-2.98773-73.67363-31.23606-94.6135-16.73545-12.98248-9.60222-88.53309-17.35171-110.38175-7.83414-21.17548-41.47038-23.75138-45.71042-.1188-19.47669,110.2095,55.83485,178.08785-140.21255,181.80222-202.33421,3.92028-134.86027-79.14422-155.39425-182.123C960.51678,432.01934,926.65037,432.51432,920.3601,455.00844Z"/>
    </g>
  </g>
</svg>
