<svg xmlns="http://www.w3.org/2000/svg" viewBox="0 0 4618.60736 896.65996">
  <g id="Layer_2" data-name="Layer 2">
    <g id="Capa_1" data-name="Capa 1">
      <path class="cls-1" d="M.0037,814.99643s12.83459,80.21618,83.42483,73.79889,77.00754-73.79889,77.00754-73.79889V422.4719s11.765-56.6861,91.98122-50.26881,71.65979,59.89475,71.65979,59.89475l7.35315,391.72237s6.01622,68.11256,76.20538,65.34059,77.00753-69.75248,77.00753-69.75248V427.55226s15.64216-57.48827,84.89547-52.94268,79.414,50.26881,79.414,50.26881l6.14991,388.51371s4.27819,78.438,76.47276,75.85107,79.68141-64.086,80.21618-77.99016,0-377.01607,0-377.01607S800.29383,231.82477,592.53391,214.97937c0,0-104.31075-12.83459-186.51748,73.79889,0,0-66.1635-82.62267-172.851-77.8097S7.75793,315.2496,3.74712,420.3328.0037,814.99643.0037,814.99643Z"/>
      <path class="cls-1" d="M1193.433,208.2429c-190.10052,0-344.20716,154.107-344.20716,344.20716,0,190.10052,154.10664,344.20746,344.20716,344.20746,190.10021,0,344.20716-154.10694,344.20716-344.20746C1537.64015,362.34985,1383.5332,208.2429,1193.433,208.2429Zm0,524.62163a180.41448,180.41448,0,1,1,180.41447-180.41447A180.41433,180.41433,0,0,1,1193.433,732.86453Z"/>
      <path class="cls-1" d="M3558.75013,208.21975c-190.11575,0-344.195,154.12918-344.195,344.24493,0,190.0661,154.07922,344.19528,344.195,344.19528A342.91164,342.91164,0,0,0,3738.2848,846.1987c13.8255,27.45176,31.0453,38.43253,78.11256,40.97811,25.90449,1.39738,44.67156-7.78661,57.9481-22.11142,16.17153-17.41934,24.70664-40.62837,25.05606-64.43663l3.394-238.23128.14989-9.9328C3902.94541,362.34893,3748.81622,208.21975,3558.75013,208.21975Zm0,524.628c-99.62474,0-180.43275-80.758-180.43275-180.3831a180.43344,180.43344,0,0,1,180.43275-180.43275c99.62505,0,180.3831,80.75805,180.3831,180.43275A180.38026,180.38026,0,0,1,3558.75013,732.84778Z"/>
      <path class="cls-1" d="M4274.41208,205.86877c-190.11575,0-344.195,154.12918-344.195,344.24493,0,190.06609,154.07922,344.19527,344.195,344.19527a342.91167,342.91167,0,0,0,179.53468-50.46125c13.82549,27.45176,31.0453,38.43253,78.11255,40.9781,25.90449,1.39739,44.67156-7.78661,57.9481-22.11141,16.17153-17.41934,24.70664-40.62838,25.05607-64.43664l3.394-238.23127.14988-9.9328C4618.60736,359.998,4464.47818,205.86877,4274.41208,205.86877Zm0,524.628c-99.62474,0-180.43275-80.75806-180.43275-180.3831a180.43344,180.43344,0,0,1,180.43275-180.43276c99.625,0,180.3831,80.75806,180.3831,180.43276A180.38027,180.38027,0,0,1,4274.41208,730.4968Z"/>
      <path class="cls-1" d="M1922.87476,208.21975A342.099,342.099,0,0,0,1742.442,259.27993V247.05166s-3.8933-170.05122-3.8933-176.44014c0-6.43857-8.03581-55.652-67.3816-66.33332s-93.03658,53.45587-92.48732,64.18713c.499,10.6813,0,475.41458,0,475.41458a.62364.62364,0,0,0,.09962-.14988c-.05,2.895-.09962,5.79-.09962,8.73465,0,5.19108.09962,10.38184.29947,15.523C1587.115,750.866,1737.99974,896.66,1922.87476,896.66c190.06609,0,344.19527-154.12918,344.19527-344.19528C2267.07,362.34893,2112.94085,208.21975,1922.87476,208.21975Zm0,524.628c-99.62474,0-180.43276-80.758-180.43276-180.3831a180.43344,180.43344,0,0,1,180.43276-180.43275c99.625,0,180.38309,80.75805,180.38309,180.43275A180.38026,180.38026,0,0,1,1922.87476,732.84778Z"/>
      <path class="cls-1" d="M2297.93,290.38259V587.18247S2310.76457,874.3564,2630.025,887.191s343.32527-264.7134,343.32527-264.7134V281.29142s-10.16072-62.56863-62.03385-67.91637-93.58555,17.64756-95.18987,65.2425-4.813,316.58653-4.813,316.58653S2759.9752,741.9997,2622.80552,723.55s-158.02588-133.961-158.02588-133.961l-6.41729-311.23879s-12.83459-68.09929-72.72934-65.735S2309.16025,247.60062,2297.93,290.38259Z"/>
      <rect class="cls-1" x="3020.14302" width="156.15418" height="887.62279" rx="78.07701"/>
    </g>
  </g>
</svg>
